<svg id="SvgjsSvg1220" width="837" height="1140" xmlns="http://www.w3.org/2000/svg" version="1.1" xmlns:xlink="http://www.w3.org/1999/xlink" xmlns:svgjs="http://svgjs.com/svgjs"><defs id="SvgjsDefs1221"><marker id="SvgjsMarker1244" markerWidth="16" markerHeight="12" refX="16" refY="6" viewBox="0 0 16 12" orient="auto" markerUnits="userSpaceOnUse"><path id="SvgjsPath1245" d="M0,2 L14,6 L0,11 L0,2" fill="#323232" stroke="#323232" stroke-width="2"></path></marker><marker id="SvgjsMarker1248" markerWidth="16" markerHeight="12" refX="16" refY="6" viewBox="0 0 16 12" orient="auto" markerUnits="userSpaceOnUse"><path id="SvgjsPath1249" d="M0,2 L14,6 L0,11 L0,2" fill="#323232" stroke="#323232" stroke-width="2"></path></marker><pattern id="SvgjsPattern1258" x="0" y="0" width="81.58845437616387" height="19.888785912882298" patternUnits="userSpaceOnUse"><image id="SvgjsImage1259" xlink:href="https://www.processon.com/assets/images/designer/network/router.svg" width="81.58845437616387" height="19.888785912882298" preserveAspectRatio="none" crossOrigin="anonymous" x="0" y="0"></image></pattern><marker id="SvgjsMarker1264" markerWidth="16" markerHeight="12" refX="16" refY="6" viewBox="0 0 16 12" orient="auto" markerUnits="userSpaceOnUse"><path id="SvgjsPath1265" d="M0,2 L14,6 L0,11 L0,2" fill="#323232" stroke="#323232" stroke-width="2"></path></marker><marker id="SvgjsMarker1268" markerWidth="16" markerHeight="12" refX="16" refY="6" viewBox="0 0 16 12" orient="auto" markerUnits="userSpaceOnUse"><path id="SvgjsPath1269" d="M0,2 L14,6 L0,11 L0,2" fill="#323232" stroke="#323232" stroke-width="2"></path></marker><marker id="SvgjsMarker1294" markerWidth="16" markerHeight="12" refX="16" refY="6" viewBox="0 0 16 12" orient="auto" markerUnits="userSpaceOnUse"><path id="SvgjsPath1295" d="M0,2 L14,6 L0,11 L0,2" fill="#323232" stroke="#323232" stroke-width="2"></path></marker><marker id="SvgjsMarker1298" markerWidth="16" markerHeight="12" refX="16" refY="6" viewBox="0 0 16 12" orient="auto" markerUnits="userSpaceOnUse"><path id="SvgjsPath1299" d="M0,2 L14,6 L0,11 L0,2" fill="#323232" stroke="#323232" stroke-width="2"></path></marker><marker id="SvgjsMarker1328" markerWidth="16" markerHeight="12" refX="16" refY="6" viewBox="0 0 16 12" orient="auto" markerUnits="userSpaceOnUse"><path id="SvgjsPath1329" d="M0,2 L14,6 L0,11 L0,2" fill="#323232" stroke="#323232" stroke-width="2"></path></marker><marker id="SvgjsMarker1338" markerWidth="16" markerHeight="12" refX="16" refY="6" viewBox="0 0 16 12" orient="auto" markerUnits="userSpaceOnUse"><path id="SvgjsPath1339" d="M0,2 L14,6 L0,11 L0,2" fill="#323232" stroke="#323232" stroke-width="2"></path></marker><pattern id="SvgjsPattern1342" x="0" y="0" width="81.58845437616387" height="19.888785912882298" patternUnits="userSpaceOnUse"><image id="SvgjsImage1343" xlink:href="https://www.processon.com/assets/images/designer/network/router.svg" width="81.58845437616387" height="19.888785912882298" preserveAspectRatio="none" crossOrigin="anonymous" x="0" y="0"></image></pattern><marker id="SvgjsMarker1348" markerWidth="16" markerHeight="12" refX="16" refY="6" viewBox="0 0 16 12" orient="auto" markerUnits="userSpaceOnUse"><path id="SvgjsPath1349" d="M0,2 L14,6 L0,11 L0,2" fill="#323232" stroke="#323232" stroke-width="2"></path></marker><marker id="SvgjsMarker1352" markerWidth="16" markerHeight="12" refX="16" refY="6" viewBox="0 0 16 12" orient="auto" markerUnits="userSpaceOnUse"><path id="SvgjsPath1353" d="M0,2 L14,6 L0,11 L0,2" fill="#323232" stroke="#323232" stroke-width="2"></path></marker><marker id="SvgjsMarker1362" markerWidth="16" markerHeight="12" refX="16" refY="6" viewBox="0 0 16 12" orient="auto" markerUnits="userSpaceOnUse"><path id="SvgjsPath1363" d="M0,2 L14,6 L0,11 L0,2" fill="#323232" stroke="#323232" stroke-width="2"></path></marker><marker id="SvgjsMarker1388" markerWidth="16" markerHeight="12" refX="16" refY="6" viewBox="0 0 16 12" orient="auto" markerUnits="userSpaceOnUse"><path id="SvgjsPath1389" d="M0,2 L14,6 L0,11 L0,2" fill="#323232" stroke="#323232" stroke-width="2"></path></marker><marker id="SvgjsMarker1392" markerWidth="16" markerHeight="12" refX="16" refY="6" viewBox="0 0 16 12" orient="auto" markerUnits="userSpaceOnUse"><path id="SvgjsPath1393" d="M0,2 L14,6 L0,11 L0,2" fill="#323232" stroke="#323232" stroke-width="2"></path></marker><marker id="SvgjsMarker1396" markerWidth="16" markerHeight="12" refX="16" refY="6" viewBox="0 0 16 12" orient="auto" markerUnits="userSpaceOnUse"><path id="SvgjsPath1397" d="M0,2 L14,6 L0,11 L0,2" fill="#323232" stroke="#323232" stroke-width="2"></path></marker><marker id="SvgjsMarker1400" markerWidth="16" markerHeight="12" refX="16" refY="6" viewBox="0 0 16 12" orient="auto" markerUnits="userSpaceOnUse"><path id="SvgjsPath1401" d="M0,2 L14,6 L0,11 L0,2" fill="#323232" stroke="#323232" stroke-width="2"></path></marker><marker id="SvgjsMarker1404" markerWidth="16" markerHeight="12" refX="16" refY="6" viewBox="0 0 16 12" orient="auto" markerUnits="userSpaceOnUse"><path id="SvgjsPath1405" d="M0,2 L14,6 L0,11 L0,2" fill="#323232" stroke="#323232" stroke-width="2"></path></marker><marker id="SvgjsMarker1408" markerWidth="16" markerHeight="12" refX="16" refY="6" viewBox="0 0 16 12" orient="auto" markerUnits="userSpaceOnUse"><path id="SvgjsPath1409" d="M0,2 L14,6 L0,11 L0,2" fill="#323232" stroke="#323232" stroke-width="2"></path></marker><marker id="SvgjsMarker1418" markerWidth="16" markerHeight="12" refX="16" refY="6" viewBox="0 0 16 12" orient="auto" markerUnits="userSpaceOnUse"><path id="SvgjsPath1419" d="M0,2 L14,6 L0,11 L0,2" fill="#323232" stroke="#323232" stroke-width="2"></path></marker><pattern id="SvgjsPattern1428" x="0" y="0" width="77" height="65" patternUnits="userSpaceOnUse"><image id="SvgjsImage1429" xlink:href="https://www.processon.com/assets/images/designer/network/pc.svg" width="77" height="65" preserveAspectRatio="none" crossOrigin="anonymous" x="0" y="0"></image></pattern><marker id="SvgjsMarker1434" markerWidth="16" markerHeight="12" refX="16" refY="6" viewBox="0 0 16 12" orient="auto" markerUnits="userSpaceOnUse"><path id="SvgjsPath1435" d="M0,2 L14,6 L0,11 L0,2" fill="#323232" stroke="#323232" stroke-width="2"></path></marker></defs><g id="SvgjsG1222" transform="translate(25.000000000000057,25)"><path id="SvgjsPath1223" d="M 0 4Q 0 0 4 0L 782.8715083798883 0Q 786.8715083798883 0 786.8715083798883 4L 786.8715083798883 1086Q 786.8715083798883 1090 782.8715083798883 1090L 4 1090Q 0 1090 0 1086Z" stroke="rgba(50,50,50,1)" stroke-width="2" fill-opacity="1" fill="#ffffff"></path><g id="SvgjsG1224"><text id="SvgjsText1225" font-family="微软雅黑" text-anchor="middle" font-size="13px" width="0" fill="#323232" font-weight="400" align="middle" anchor="middle" family="微软雅黑" size="13px" weight="400" font-style="" opacity="1" y="68.90714285714284" transform="rotate(0)"></text></g></g><g id="SvgjsG1226" transform="translate(92.81005586592198,62)"><path id="SvgjsPath1227" d="M 0 0L 645.617318435754 0L 645.617318435754 878L 0 878Z" stroke="rgba(50,50,50,1)" stroke-width="2" fill-opacity="1" fill="#ffffff"></path><g id="SvgjsG1228"><text id="SvgjsText1229" font-family="微软雅黑" text-anchor="middle" font-size="13px" width="0" fill="#323232" font-weight="400" align="middle" anchor="middle" family="微软雅黑" size="13px" weight="400" font-style="" opacity="1" y="429.05" transform="rotate(0)"></text></g></g><g id="SvgjsG1230" transform="translate(126.00000000000006,775.5616311399444)"><path id="SvgjsPath1231" d="M 0 4Q 0 0 4 0L 193.08379888268158 0Q 197.08379888268158 0 197.08379888268158 4L 197.08379888268158 42.738646895273405Q 197.08379888268158 46.738646895273405 193.08379888268158 46.738646895273405L 4 46.738646895273405Q 0 46.738646895273405 0 42.738646895273405Z" stroke="rgba(50,50,50,1)" stroke-width="2" fill-opacity="1" fill="#ffffff"></path><g id="SvgjsG1232"><text id="SvgjsText1233" font-family="微软雅黑" text-anchor="middle" font-size="13px" width="142" fill="#323232" font-weight="400" align="middle" anchor="middle" family="微软雅黑" size="13px" weight="400" font-style="" opacity="1" y="13.419323447636703" transform="rotate(0)"><tspan id="SvgjsTspan1234" dy="16" x="99"><tspan id="SvgjsTspan1235" style="text-decoration:;">vue_nginx1/keepalived</tspan></tspan></text></g></g><g id="SvgjsG1236" transform="translate(497.91620111731845,775.5616311399444)"><path id="SvgjsPath1237" d="M 0 4Q 0 0 4 0L 193.08379888268158 0Q 197.08379888268158 0 197.08379888268158 4L 197.08379888268158 42.738646895273405Q 197.08379888268158 46.738646895273405 193.08379888268158 46.738646895273405L 4 46.738646895273405Q 0 46.738646895273405 0 42.738646895273405Z" stroke="rgba(50,50,50,1)" stroke-width="2" fill-opacity="1" fill="#ffffff"></path><g id="SvgjsG1238"><text id="SvgjsText1239" font-family="微软雅黑" text-anchor="middle" font-size="13px" width="142" fill="#323232" font-weight="400" align="middle" anchor="middle" family="微软雅黑" size="13px" weight="400" font-style="" opacity="1" y="13.419323447636703" transform="rotate(0)"><tspan id="SvgjsTspan1240" dy="16" x="99"><tspan id="SvgjsTspan1241" style="text-decoration:;">vue_nginx2/keepalived</tspan></tspan></text></g></g><g id="SvgjsG1242"><path id="SvgjsPath1243" d="M323.0837988826816 798.9309545875813L410.50000000000006 798.9309545875813L410.50000000000006 798.9309545875813L497.91620111731845 798.9309545875813" stroke="#323232" stroke-width="2" fill="none" marker-end="url(#SvgjsMarker1244)"></path></g><g id="SvgjsG1246"><path id="SvgjsPath1247" d="M497.91620111731845 798.9309545875813L410.50000000000006 798.9309545875813L410.50000000000006 798.9309545875813L323.0837988826816 798.9309545875813" stroke="#323232" stroke-width="2" fill="none" marker-end="url(#SvgjsMarker1248)"></path></g><g id="SvgjsG1250" transform="translate(364.4078212290504,775.5616311399444)"><path id="SvgjsPath1251" d="M 0 0L 95.3631284916201 0L 95.3631284916201 19.888785912882298L 0 19.888785912882298Z" stroke="none" fill="none"></path><g id="SvgjsG1252"><text id="SvgjsText1253" font-family="微软雅黑" text-anchor="middle" font-size="13px" width="60" fill="#323232" font-weight="400" align="middle" anchor="middle" family="微软雅黑" size="13px" weight="400" font-style="" opacity="1" y="-0.005607043558850888" transform="rotate(0)"><tspan id="SvgjsTspan1254" dy="16" x="48"><tspan id="SvgjsTspan1255" style="text-decoration:;">heartbeat</tspan></tspan></text></g></g><g id="SvgjsG1256" transform="translate(364.58007448789573,856.1112140871178)"><path id="SvgjsPath1257" d="M 0 0L 81.58845437616387 0L 81.58845437616387 19.888785912882298L 0 19.888785912882298Z" stroke="none" fill="url(#SvgjsPattern1258)"></path><g id="SvgjsG1260"><text id="SvgjsText1261" font-family="微软雅黑" text-anchor="middle" font-size="13px" width="0" fill="#323232" font-weight="400" align="middle" anchor="middle" family="微软雅黑" size="13px" weight="400" font-style="" opacity="1" y="24.9387859128823" transform="rotate(0)"></text></g></g><g id="SvgjsG1262"><path id="SvgjsPath1263" d="M405.37430167597773 856.1112140871178L405.37430167597773 839.2057460611677L224.54189944134083 839.2057460611677L224.54189944134083 822.3002780352178" stroke="#323232" stroke-width="2" fill="none" marker-end="url(#SvgjsMarker1264)"></path></g><g id="SvgjsG1266"><path id="SvgjsPath1267" d="M405.37430167597773 856.1112140871178L405.37430167597773 839.2057460611677L596.4581005586592 839.2057460611677L596.4581005586592 822.3002780352178" stroke="#323232" stroke-width="2" fill="none" marker-end="url(#SvgjsMarker1268)"></path></g><g id="SvgjsG1270" transform="translate(351.6927374301677,819.3169601482855)"><path id="SvgjsPath1271" d="M 0 0L 95.3631284916201 0L 95.3631284916201 19.888785912882298L 0 19.888785912882298Z" stroke="none" fill="none"></path><g id="SvgjsG1272"><text id="SvgjsText1273" font-family="微软雅黑" text-anchor="middle" font-size="13px" width="47" fill="#323232" font-weight="400" align="middle" anchor="middle" family="微软雅黑" size="13px" weight="400" font-style="" opacity="1" y="-0.005607043558850888" transform="rotate(0)"><tspan id="SvgjsTspan1274" dy="16" x="48"><tspan id="SvgjsTspan1275" style="text-decoration:;">viturl IP</tspan></tspan></text></g></g><g id="SvgjsG1276" transform="translate(205.4692737430168,589.6570898980538)"><path id="SvgjsPath1277" d="M 0 0L 403.7039106145251 0L 403.7039106145251 112.37164040778498L 0 112.37164040778498Z" stroke="rgba(50,50,50,1)" stroke-width="2" fill-opacity="1" fill="#ffffff"></path><g id="SvgjsG1278"><text id="SvgjsText1279" font-family="微软雅黑" text-anchor="middle" font-size="13px" width="0" fill="#323232" font-weight="400" align="middle" anchor="middle" family="微软雅黑" size="13px" weight="400" font-style="" opacity="1" y="46.23582020389249" transform="rotate(0)"></text></g></g><g id="SvgjsG1280" transform="translate(252.62104283054015,606.0653382761816)"><path id="SvgjsPath1281" d="M 0 4Q 0 0 4 0L 101.95903165735568 0Q 105.95903165735568 0 105.95903165735568 4L 105.95903165735568 65.61075069508804Q 105.95903165735568 69.61075069508804 101.95903165735568 69.61075069508804L 4 69.61075069508804Q 0 69.61075069508804 0 65.61075069508804Z" stroke="rgba(50,50,50,1)" stroke-width="2" fill-opacity="1" fill="#ffffff"></path><g id="SvgjsG1282"><text id="SvgjsText1283" font-family="微软雅黑" text-anchor="middle" font-size="13px" width="51" fill="#323232" font-weight="400" align="middle" anchor="middle" family="微软雅黑" size="13px" weight="400" font-style="" opacity="1" y="24.855375347544022" transform="rotate(0)"><tspan id="SvgjsTspan1284" dy="16" x="53"><tspan id="SvgjsTspan1285" style="text-decoration:;">django1</tspan></tspan></text></g></g><g id="SvgjsG1286" transform="translate(440.1685288640597,606.0653382761816)"><path id="SvgjsPath1287" d="M 0 4Q 0 0 4 0L 101.95903165735568 0Q 105.95903165735568 0 105.95903165735568 4L 105.95903165735568 65.61075069508804Q 105.95903165735568 69.61075069508804 101.95903165735568 69.61075069508804L 4 69.61075069508804Q 0 69.61075069508804 0 65.61075069508804Z" stroke="rgba(50,50,50,1)" stroke-width="2" fill-opacity="1" fill="#ffffff"></path><g id="SvgjsG1288"><text id="SvgjsText1289" font-family="微软雅黑" text-anchor="middle" font-size="13px" width="51" fill="#323232" font-weight="400" align="middle" anchor="middle" family="微软雅黑" size="13px" weight="400" font-style="" opacity="1" y="24.855375347544022" transform="rotate(0)"><tspan id="SvgjsTspan1290" dy="16" x="53"><tspan id="SvgjsTspan1291" style="text-decoration:;">django2</tspan></tspan></text></g></g><g id="SvgjsG1292"><path id="SvgjsPath1293" d="M224.54189944134083 775.5616311399444L224.54189944134083 738.7951807228915L407.3212290502793 738.7951807228915L407.3212290502793 702.0287303058387" stroke="#323232" stroke-width="2" fill="none" marker-end="url(#SvgjsMarker1294)"></path></g><g id="SvgjsG1296"><path id="SvgjsPath1297" d="M596.4581005586592 775.5616311399444L596.4581005586592 738.7951807228915L407.3212290502793 738.7951807228915L407.3212290502793 702.0287303058387" stroke="#323232" stroke-width="2" fill="none" marker-end="url(#SvgjsMarker1298)"></path></g><g id="SvgjsG1300" transform="translate(358.58007448789573,735.7840593141798)"><path id="SvgjsPath1301" d="M 0 0L 95.3631284916201 0L 95.3631284916201 19.888785912882298L 0 19.888785912882298Z" stroke="none" fill="none"></path><g id="SvgjsG1302"><text id="SvgjsText1303" font-family="微软雅黑" text-anchor="middle" font-size="13px" width="71" fill="#323232" font-weight="400" align="middle" anchor="middle" family="微软雅黑" size="13px" weight="400" font-style="" opacity="1" y="-0.005607043558850888" transform="rotate(0)"><tspan id="SvgjsTspan1304" dy="16" x="48"><tspan id="SvgjsTspan1305" style="text-decoration:;">roundrobin</tspan></tspan></text></g></g><g id="SvgjsG1306" transform="translate(209.23743016759778,378.7803521779424)"><path id="SvgjsPath1307" d="M 0 0L 403.7039106145251 0L 403.7039106145251 112.37164040778498L 0 112.37164040778498Z" stroke="rgba(50,50,50,1)" stroke-width="2" fill-opacity="1" fill="#ffffff"></path><g id="SvgjsG1308"><text id="SvgjsText1309" font-family="微软雅黑" text-anchor="middle" font-size="13px" width="0" fill="#323232" font-weight="400" align="middle" anchor="middle" family="微软雅黑" size="13px" weight="400" font-style="" opacity="1" y="46.23582020389249" transform="rotate(0)"></text></g></g><g id="SvgjsG1310" transform="translate(219.1247672253259,402.96061167747916)"><path id="SvgjsPath1311" d="M 0 4Q 0 0 4 0L 108.31657355679702 0Q 112.31657355679702 0 112.31657355679702 4L 112.31657355679702 62.6274328081557Q 112.31657355679702 66.6274328081557 108.31657355679702 66.6274328081557L 4 66.6274328081557Q 0 66.6274328081557 0 62.6274328081557Z" stroke="rgba(50,50,50,1)" stroke-width="2" fill-opacity="1" fill="#ffffff"></path><g id="SvgjsG1312"><text id="SvgjsText1313" font-family="微软雅黑" text-anchor="middle" font-size="13px" width="91" fill="#323232" font-weight="400" align="middle" anchor="middle" family="微软雅黑" size="13px" weight="400" font-style="" opacity="1" y="15.363716404077852" transform="rotate(0)"><tspan id="SvgjsTspan1314" dy="16" x="56.5"><tspan id="SvgjsTspan1315" style="text-decoration:;">pxc_haproxy1/</tspan></tspan><tspan id="SvgjsTspan1316" dy="16" x="56.5"><tspan id="SvgjsTspan1317" style="text-decoration:;">keepalived</tspan></tspan></text></g></g><g id="SvgjsG1318" transform="translate(494,402.7743280815571)"><path id="SvgjsPath1319" d="M 0 4Q 0 0 4 0L 102 0Q 106 0 106 4L 106 63Q 106 67 102 67L 4 67Q 0 67 0 63Z" stroke="rgba(50,50,50,1)" stroke-width="2" fill-opacity="1" fill="#ffffff"></path><g id="SvgjsG1320"><text id="SvgjsText1321" font-family="微软雅黑" text-anchor="middle" font-size="13px" width="85" fill="#323232" font-weight="400" align="middle" anchor="middle" family="微软雅黑" size="13px" weight="400" font-style="" opacity="1" y="15.55" transform="rotate(0)"><tspan id="SvgjsTspan1322" dy="16" x="53"><tspan id="SvgjsTspan1323" style="text-decoration:;">pxc_haproxy2</tspan></tspan><tspan id="SvgjsTspan1324" dy="16" x="53"><tspan id="SvgjsTspan1325" style="text-decoration:;">/keepalived</tspan></tspan></text></g></g><g id="SvgjsG1326"><path id="SvgjsPath1327" d="M494 436.2743280815571L412.72067039106156 436.2743280815571L412.72067039106156 436.2743280815571L331.44134078212295 436.2743280815571" stroke="#323232" stroke-width="2" fill="none" marker-end="url(#SvgjsMarker1328)"></path></g><g id="SvgjsG1330" transform="translate(358.58007448789573,447.39666357738633)"><path id="SvgjsPath1331" d="M 0 0L 95.3631284916201 0L 95.3631284916201 19.888785912882298L 0 19.888785912882298Z" stroke="none" fill="none"></path><g id="SvgjsG1332"><text id="SvgjsText1333" font-family="微软雅黑" text-anchor="middle" font-size="13px" width="60" fill="#323232" font-weight="400" align="middle" anchor="middle" family="微软雅黑" size="13px" weight="400" font-style="" opacity="1" y="-0.005607043558850888" transform="rotate(0)"><tspan id="SvgjsTspan1334" dy="16" x="48"><tspan id="SvgjsTspan1335" style="text-decoration:;">heartbeat</tspan></tspan></text></g></g><g id="SvgjsG1336"><path id="SvgjsPath1337" d="M331.44134078212295 436.2743280815571L412.72067039106156 436.2743280815571L412.72067039106156 436.2743280815571L494 436.2743280815571" stroke="#323232" stroke-width="2" fill="none" marker-end="url(#SvgjsMarker1338)"></path></g><g id="SvgjsG1340" transform="translate(366.6461824953445,532.0352177942539)"><path id="SvgjsPath1341" d="M 0 0L 81.58845437616387 0L 81.58845437616387 19.888785912882298L 0 19.888785912882298Z" stroke="none" fill="url(#SvgjsPattern1342)"></path><g id="SvgjsG1344"><text id="SvgjsText1345" font-family="微软雅黑" text-anchor="middle" font-size="13px" width="0" fill="#323232" font-weight="400" align="middle" anchor="middle" family="微软雅黑" size="13px" weight="400" font-style="" opacity="1" y="24.9387859128823" transform="rotate(0)"></text></g></g><g id="SvgjsG1346"><path id="SvgjsPath1347" d="M448.2346368715084 541.979610750695L547 541.979610750695L547 469.7743280815571" stroke="#323232" stroke-width="2" fill="none" marker-end="url(#SvgjsMarker1348)"></path></g><g id="SvgjsG1350"><path id="SvgjsPath1351" d="M366.6461824953445 541.979610750695L275.28305400372443 541.979610750695L275.28305400372443 469.5880444856348" stroke="#323232" stroke-width="2" fill="none" marker-end="url(#SvgjsMarker1352)"></path></g><g id="SvgjsG1354" transform="translate(361.75884543761646,506.95180722891564)"><path id="SvgjsPath1355" d="M 0 0L 95.3631284916201 0L 95.3631284916201 19.888785912882298L 0 19.888785912882298Z" stroke="none" fill="none"></path><g id="SvgjsG1356"><text id="SvgjsText1357" font-family="微软雅黑" text-anchor="middle" font-size="13px" width="47" fill="#323232" font-weight="400" align="middle" anchor="middle" family="微软雅黑" size="13px" weight="400" font-style="" opacity="1" y="-0.005607043558850888" transform="rotate(0)"><tspan id="SvgjsTspan1358" dy="16" x="48"><tspan id="SvgjsTspan1359" style="text-decoration:;">viturl IP</tspan></tspan></text></g></g><g id="SvgjsG1360"><path id="SvgjsPath1361" d="M407.3212290502793 589.6570898980538L407.3212290502793 570.7905468025949L407.4404096834265 570.7905468025949L407.4404096834265 551.9240037071363" stroke="#323232" stroke-width="2" fill="none" marker-end="url(#SvgjsMarker1362)"></path></g><g id="SvgjsG1364" transform="translate(203.2374301675979,137)"><path id="SvgjsPath1365" d="M 0 0L 416.3966480446927 0L 416.3966480446927 192.1519925857275L 0 192.1519925857275Z" stroke="rgba(50,50,50,1)" stroke-width="2" fill-opacity="1" fill="#ffffff"></path><g id="SvgjsG1366"><text id="SvgjsText1367" font-family="微软雅黑" text-anchor="middle" font-size="13px" width="0" fill="#323232" font-weight="400" align="middle" anchor="middle" family="微软雅黑" size="13px" weight="400" font-style="" opacity="1" y="86.12599629286375" transform="rotate(0)"></text></g></g><g id="SvgjsG1368" transform="translate(370.05633147113605,221)"><path id="SvgjsPath1369" d="M 0 4Q 0 0 4 0L 87.12476722532585 0Q 91.12476722532585 0 91.12476722532585 4L 91.12476722532585 43.588044485634896Q 91.12476722532585 47.588044485634896 87.12476722532585 47.588044485634896L 4 47.588044485634896Q 0 47.588044485634896 0 43.588044485634896Z" stroke="rgba(50,50,50,1)" stroke-width="2" fill-opacity="1" fill="#ffffff"></path><g id="SvgjsG1370"><text id="SvgjsText1371" font-family="微软雅黑" text-anchor="middle" font-size="13px" width="70" fill="#323232" font-weight="400" align="middle" anchor="middle" family="微软雅黑" size="13px" weight="400" font-style="" opacity="1" y="13.844022242817449" transform="rotate(0)"><tspan id="SvgjsTspan1372" dy="16" x="46"><tspan id="SvgjsTspan1373" style="text-decoration:;">pxc_master</tspan></tspan></text></g></g><g id="SvgjsG1374" transform="translate(249.1247672253259,220)"><path id="SvgjsPath1375" d="M 0 4Q 0 0 4 0L 85.87523277467415 0Q 89.87523277467415 0 89.87523277467415 4L 89.87523277467415 45.588044485634896Q 89.87523277467415 49.588044485634896 85.87523277467415 49.588044485634896L 4 49.588044485634896Q 0 49.588044485634896 0 45.588044485634896Z" stroke="rgba(50,50,50,1)" stroke-width="2" fill-opacity="1" fill="#ffffff"></path><g id="SvgjsG1376"><text id="SvgjsText1377" font-family="微软雅黑" text-anchor="middle" font-size="13px" width="66" fill="#323232" font-weight="400" align="middle" anchor="middle" family="微软雅黑" size="13px" weight="400" font-style="" opacity="1" y="14.844022242817449" transform="rotate(0)"><tspan id="SvgjsTspan1378" dy="16" x="45"><tspan id="SvgjsTspan1379" style="text-decoration:;">pxc_slave1</tspan></tspan></text></g></g><g id="SvgjsG1380" transform="translate(507,222.2940222428174)"><path id="SvgjsPath1381" d="M 0 4Q 0 0 4 0L 89 0Q 93 0 93 4L 93 41Q 93 45 89 45L 4 45Q 0 45 0 41Z" stroke="rgba(50,50,50,1)" stroke-width="2" fill-opacity="1" fill="#ffffff"></path><g id="SvgjsG1382"><text id="SvgjsText1383" font-family="微软雅黑" text-anchor="middle" font-size="13px" width="66" fill="#323232" font-weight="400" align="middle" anchor="middle" family="微软雅黑" size="13px" weight="400" font-style="" opacity="1" y="12.55" transform="rotate(0)"><tspan id="SvgjsTspan1384" dy="16" x="46.5"><tspan id="SvgjsTspan1385" style="text-decoration:;">pxc_slave2</tspan></tspan></text></g></g><g id="SvgjsG1386"><path id="SvgjsPath1387" d="M461.18109869646173 244.7940222428174L484.090549348231 244.7940222428174L484.090549348231 244.7940222428174L507 244.7940222428174" stroke="#323232" stroke-width="2" fill="none" marker-end="url(#SvgjsMarker1388)"></path></g><g id="SvgjsG1390"><path id="SvgjsPath1391" d="M553.5 267.2940222428174L553.5 298.5880444856348L415.61871508379886 298.5880444856348L415.61871508379886 268.5880444856348" stroke="#323232" stroke-width="2" fill="none" marker-end="url(#SvgjsMarker1392)"></path></g><g id="SvgjsG1394"><path id="SvgjsPath1395" d="M553.5 222.2940222428174L553.5 190L294.0623836126629 190L294.0623836126629 220" stroke="#323232" stroke-width="2" fill="none" marker-end="url(#SvgjsMarker1396)"></path></g><g id="SvgjsG1398"><path id="SvgjsPath1399" d="M294.0623836126629 269.5880444856348L294.0623836126629 299.5880444856348L415.61871508379886 299.5880444856348L415.61871508379886 268.5880444856348" stroke="#323232" stroke-width="2" fill="none" marker-end="url(#SvgjsMarker1400)"></path></g><g id="SvgjsG1402"><path id="SvgjsPath1403" d="M370.05633147113605 244.7940222428174L354.52816573556805 244.7940222428174L354.52816573556805 244.7940222428174L339.00000000000006 244.7940222428174" stroke="#323232" stroke-width="2" fill="none" marker-end="url(#SvgjsMarker1404)"></path></g><g id="SvgjsG1406"><path id="SvgjsPath1407" d="M294.0623836126629 220L294.0623836126629 190L553.5 190L553.5 222.2940222428174" stroke="#323232" stroke-width="2" fill="none" marker-end="url(#SvgjsMarker1408)"></path></g><g id="SvgjsG1410" transform="translate(344.8715083798883,163)"><path id="SvgjsPath1411" d="M 0 0L 147.12849162011173 0L 147.12849162011173 21.285449490268775L 0 21.285449490268775Z" stroke="none" fill="none"></path><g id="SvgjsG1412"><text id="SvgjsText1413" font-family="微软雅黑" text-anchor="middle" font-size="13px" width="102" fill="#323232" font-weight="400" align="middle" anchor="middle" family="微软雅黑" size="13px" weight="400" font-style="" opacity="1" y="0.6927247451343874" transform="rotate(0)"><tspan id="SvgjsTspan1414" dy="16" x="74"><tspan id="SvgjsTspan1415" style="text-decoration:;">master/slave HA</tspan></tspan></text></g></g><g id="SvgjsG1416"><path id="SvgjsPath1417" d="M411.0893854748604 378.7803521779424L411.43575418994425 329.1519925857274" stroke="#323232" stroke-width="2" fill="none" marker-end="url(#SvgjsMarker1418)"></path></g><g id="SvgjsG1420" transform="translate(409.55307262569846,338.7840593141798)"><path id="SvgjsPath1421" d="M 0 0L 95.3631284916201 0L 95.3631284916201 19.888785912882298L 0 19.888785912882298Z" stroke="none" fill="none"></path><g id="SvgjsG1422"><text id="SvgjsText1423" font-family="微软雅黑" text-anchor="middle" font-size="13px" width="71" fill="#323232" font-weight="400" align="middle" anchor="middle" family="微软雅黑" size="13px" weight="400" font-style="" opacity="1" y="-0.005607043558850888" transform="rotate(0)"><tspan id="SvgjsTspan1424" dy="16" x="48"><tspan id="SvgjsTspan1425" style="text-decoration:;">roundrobin</tspan></tspan></text></g></g><g id="SvgjsG1426" transform="translate(365.9404096834264,999.5)"><path id="SvgjsPath1427" d="M 0 0L 77 0L 77 65L 0 65Z" stroke="none" fill="url(#SvgjsPattern1428)"></path><g id="SvgjsG1430"><text id="SvgjsText1431" font-family="微软雅黑" text-anchor="middle" font-size="13px" width="0" fill="#323232" font-weight="400" align="middle" anchor="middle" family="微软雅黑" size="13px" weight="400" font-style="" opacity="1" y="70.05" transform="rotate(0)"></text></g></g><g id="SvgjsG1432"><path id="SvgjsPath1433" d="M404.4404096834264 999.5L405.37430167597773 876" stroke="#323232" stroke-width="2" fill="none" marker-end="url(#SvgjsMarker1434)"></path></g><g id="SvgjsG1436" transform="translate(107.87430167597779,76.95180722891564)"><path id="SvgjsPath1437" d="M 0 0L 158.1256983240222 0L 158.1256983240222 22.04819277108436L 0 22.04819277108436Z" stroke="none" fill="none"></path><g id="SvgjsG1438"><text id="SvgjsText1439" font-family="微软雅黑" text-anchor="middle" font-size="13px" width="149" fill="#323232" font-weight="400" align="middle" anchor="middle" family="微软雅黑" size="13px" weight="400" font-style="" opacity="1" y="1.0740963855421797" transform="rotate(0)"><tspan id="SvgjsTspan1440" dy="16" x="79.5"><tspan id="SvgjsTspan1441" style="text-decoration:;">custom bridge network </tspan></tspan></text></g></g></svg>